<svg xmlns="http://www.w3.org/2000/svg" height="19" width="70" viewBox="0 0 84 27" class="ameba-logo-svg"><g fill-rule="evenodd" fill="none"><path fill="#2D8C3C" mask="url(#mask-2)" d="M21.728 20.911c-.276-.662-.777-.972-1.704-1.572-.698-.451-1.179-1.065-1.264-2.305-.11-1.612.246-2.611.162-4.923-.064-1.782-.707-3.127-1.108-3.914-.471-.927-.559-1.584-.59-2.654-.028-.977.013-3.149-.011-3.828-.025-.683-.3-1.123-.768-1.341-.569-.264-1.176-.182-1.687.372-.469.509-1.32 1.42-1.905 1.954-.766.699-1.253.853-1.931.853s-1.165-.154-1.93-.853C8.406 2.165 7.555 1.255 7.086.746 6.576.192 5.969.11 5.4.374c-.47.218-.744.658-.768 1.341-.025.68.017 2.85-.012 3.828-.03 1.07-.119 1.727-.59 2.653-.401.788-1.044 2.133-1.108 3.915-.083 2.312.271 3.311.162 4.923-.084 1.24-.566 1.854-1.264 2.305-.926.6-1.428.91-1.704 1.572-.194.468-.194 1.14.38 1.431.363.184.803.149 1.26-.032.354-.141.7-.35 1.046-.331.264.013.48.155.518.589.038.446.248.637.576.637.266 0 .52-.181.71-.673.201-.526.302-.988.62-.98.338.008.42.372.443.884.033.736-.252 1.303-.797 1.806-.63.58-1.103 1.125-.932 1.837.122.508.677.835 1.56.879.885.045 2.343.053 3.357.029.946-.023 1.488-.429 1.605-.97.132-.614-.225-.833-.134-1.338.049-.278.317-.401.594-.401.278 0 .545.123.594.401.091.505-.266.724-.134 1.338.117.541.659.947 1.605.97 1.015.024 2.473.016 3.358-.029.882-.044 1.437-.371 1.559-.879.172-.712-.302-1.257-.932-1.837-.545-.503-.83-1.07-.797-1.806.023-.512.104-.876.444-.884.317-.008.418.454.62.98.191.492.444.673.709.673.329 0 .538-.191.577-.637.037-.434.253-.576.517-.589.346-.019.692.19 1.047.331.456.181.896.216 1.259.032.574-.291.574-.963.38-1.431"/><path fill="#fff" d="M6.808 9.574a.734.734 0 1 0-.735-.733c0 .405.33.733.735.733m8.246 1.337c-1.187-1.005-2.413-1.397-4.132-1.395-1.718-.003-2.945.39-4.132 1.395-.815.689-1.347 2.067-.727 3.108a2.15 2.15 0 0 0 1.638 1.009c.95.084 1.544-.257 1.921-.67.361-.397.752-.773 1.3-.773.549 0 .939.376 1.3.773.377.413.971.754 1.921.67a2.152 2.152 0 0 0 1.638-1.009c.62-1.041.088-2.419-.727-3.108m-4.132 5.605a3.403 3.403 0 0 0-3.405 3.393 3.404 3.404 0 0 0 3.405 3.395 3.403 3.403 0 0 0 3.404-3.395 3.402 3.402 0 0 0-3.404-3.393m4.114-6.942a.734.734 0 1 0 0-1.466.734.734 0 1 0 0 1.466"/><path fill="#2D8C3C" d="M10.922 9.883c-.954 0-1.7.567-1.7 1.29 0 .725.746 1.292 1.7 1.292s1.701-.567 1.701-1.292c0-.723-.747-1.29-1.701-1.29"/><path fill="#000" d="M28.47 15.064V13.09c0-1.001.052-1.339.075-1.437.255-1.105 1.287-1.906 2.455-1.906s2.2.801 2.454 1.905c.023.099.076.437.076 1.438v1.974h-5.06zM31 7.166c-2.363 0-4.457 1.644-4.979 3.91-.097.423-.141 1.044-.141 2.014v7.607c0 .713.58 1.291 1.295 1.291s1.295-.578 1.295-1.291v-3.051h5.06v3.051c0 .713.579 1.291 1.294 1.291.716 0 1.295-.578 1.295-1.291V13.09c0-.97-.043-1.591-.141-2.014-.521-2.266-2.615-3.91-4.978-3.91zm39.353 10.449c-.03 1.068-.888 1.937-1.91 1.937-1.051 0-1.896-.868-1.908-1.903a132.22 132.22 0 0 1 0-3.149c.012-1.032.857-1.902 1.908-1.902 1.058 0 1.882.847 1.91 1.918a59.195 59.195 0 0 1 0 3.099m2.452-3.128c-.055-2.442-1.944-4.334-4.362-4.334-.683 0-1.331.159-1.908.441V8.392a1.226 1.226 0 0 0-2.453 0v8.363c0 .849.029 1.622.176 2.117a4.364 4.364 0 0 0 4.185 3.125c2.339 0 4.295-1.935 4.362-4.313.027-.953.026-2.105 0-3.197m-25.523-4.342c-.952 0-1.822.373-2.479.982a3.635 3.635 0 0 0-2.478-.982c-1.693 0-3.171 1.189-3.595 2.891-.111.444-.111.942-.111 1.382v6.354a1.226 1.226 0 0 0 2.454 0v-6.356c0-.254 0-.638.037-.79.152-.61.652-1.036 1.215-1.036.69 0 1.252.615 1.252 1.37v6.812c0 .675.548 1.223 1.226 1.223s1.227-.548 1.227-1.223V13.96c0-.755.561-1.37 1.252-1.37.563 0 1.062.426 1.214 1.036.038.152.038.536.038.79v6.356c0 .675.548 1.223 1.227 1.223.676 0 1.226-.548 1.226-1.223v-6.354c0-.44 0-.938-.11-1.382-.424-1.702-1.902-2.891-3.595-2.891m33.599 6.187a21.6 21.6 0 0 1-.019 1.838c-.042.669-.79 1.389-1.93 1.389-1.045 0-1.929-.626-1.929-1.367 0-.308 0-.881 2.037-1.363.655-.154 1.277-.31 1.841-.497m-6.331 1.86c0 2.102 1.966 3.812 4.382 3.812 2.379 0 4.346-1.7 4.384-3.79a126.81 126.81 0 0 0 0-4.274c-.037-2.164-1.92-3.795-4.384-3.795A5.666 5.666 0 0 0 75 11.718a1.222 1.222 0 0 0 0 1.729c.48.478 1.256.478 1.735 0a3.192 3.192 0 0 1 2.197-.857c.967 0 1.73.472 1.896 1.133-.635.321-1.754.586-2.354.727-.971.228-3.924.926-3.924 3.742m-18.708-2.376c-.012-.622-.021-1.23.019-1.838.042-.669.79-1.388 1.929-1.388 1.046 0 1.93.626 1.93 1.368 0 .307 0 .881-2.036 1.361a22.5 22.5 0 0 0-1.842.497m6.331-1.858c0-2.103-1.966-3.813-4.383-3.813-2.379 0-4.344 1.7-4.382 3.789-.025 1.4-.025 2.758 0 4.275.035 2.163 1.92 3.795 4.382 3.795 2.184 0 3.563-1.205 3.932-1.574.48-.477.48-1.251 0-1.728a1.228 1.228 0 0 0-1.734 0 3.196 3.196 0 0 1-2.198.857c-.966 0-1.728-.472-1.895-1.133.635-.321 1.754-.586 2.354-.727.971-.23 3.924-.927 3.924-3.741"/></g></svg>